<svg width="160" height="40" viewBox="0 0 160 40" fill="none" xmlns="http://www.w3.org/2000/svg">
<g clip-path="url(#clip0_17306_176411)">
<path d="M19.9616 40C30.9861 40 39.9232 31.0457 39.9232 20C39.9232 8.9543 30.9861 0 19.9616 0C8.93712 0 0 8.9543 0 20C0 31.0457 8.93712 40 19.9616 40Z" fill="#222A59"/>
<path d="M28.3982 8.53027L17.125 19.8294V8.53027H28.3982Z" fill="#E64D9B"/>
<path d="M28.3982 19.8294H17.125L28.3982 8.53027" fill="#D82388"/>
<path d="M17.125 19.8291L28.3982 31.124H17.125V19.8291Z" fill="#B91D7E"/>
<path d="M28.3982 19.8291V31.124L17.125 19.8291" fill="#E03694"/>
<path d="M17.1251 19.8294H5.84766L17.1251 8.53027" fill="#B91D7E"/>
<path d="M52.382 20.8378L50.0276 23.6284V28.8549H46.6836V11.1455H50.0276V19.8763H50.1555L52.6635 16.5515L57.044 11.1455H60.8956L54.7407 18.5301L61.4032 28.8592H57.4279L52.3863 20.8421L52.382 20.8378Z" fill="#222A59"/>
<path d="M63.8555 28.8549V11.1455H75.5083V14.1156H67.1995V18.4062H74.5443V21.3763H67.1995V25.8934H75.5083V28.8635H63.8555V28.8549Z" fill="#222A59"/>
<path d="M82.3987 28.8549H79.0547V11.1455H87.0351C87.8455 11.1455 88.5706 11.2737 89.2146 11.5258C89.8544 11.778 90.4004 12.1455 90.8483 12.6284C91.2961 13.1113 91.6416 13.6882 91.8847 14.3677C92.1278 15.0429 92.2515 15.7994 92.2515 16.6241C92.2515 17.8421 91.9786 18.8934 91.4283 19.7694C90.8781 20.6498 90.0549 21.2737 88.9587 21.6455L92.58 28.8506H88.8564L85.5635 22.0259H82.3987V28.8506V28.8549ZM86.7024 19.2139C87.3422 19.2139 87.8497 19.0387 88.2208 18.6925C88.5919 18.3464 88.7796 17.8506 88.7796 17.2096V16.0429C88.7796 15.4019 88.5919 14.9105 88.2208 14.5729C87.8497 14.2353 87.3422 14.0643 86.7024 14.0643H82.3987V19.2139H86.7024Z" fill="#222A59"/>
<path d="M99.2362 28.8543L93.4609 11.1406H96.8817L99.5902 19.7688L101.16 25.6577H101.237L102.781 19.7688L105.489 11.1406H108.807L103.032 28.8543H99.2319H99.2362Z" fill="#222A59"/>
<path d="M122.943 29.1627C122.082 29.1627 121.271 29.0217 120.512 28.7439C119.753 28.4661 119.083 28.0345 118.499 27.449C117.915 26.8635 117.458 26.1242 117.117 25.2268C116.78 24.3293 116.609 23.2738 116.609 22.0558C116.609 20.5516 116.827 19.1157 117.266 17.7524C117.706 16.3892 118.324 15.1969 119.126 14.1755C119.928 13.1541 120.887 12.3422 122.001 11.7396C123.114 11.137 124.347 10.8379 125.699 10.8379C126.56 10.8379 127.371 10.9832 128.13 11.2695C128.889 11.5558 129.555 11.9917 130.13 12.5772C130.706 13.1627 131.158 13.8977 131.5 14.7866C131.836 15.6755 132.007 16.7268 132.007 17.9447C132.007 19.449 131.79 20.8849 131.35 22.2481C130.911 23.6114 130.297 24.8037 129.503 25.8251C128.71 26.8507 127.755 27.6627 126.641 28.261C125.528 28.8593 124.295 29.1627 122.943 29.1627ZM123.174 26.3208C124.458 26.3208 125.52 25.8934 126.364 25.0345C127.209 24.1755 127.784 22.9661 128.087 21.402L128.62 18.7524C128.689 18.4618 128.731 18.1969 128.748 17.949C128.765 17.7011 128.774 17.4789 128.774 17.2738C128.774 16.1199 128.493 15.2311 127.925 14.6114C127.358 13.9917 126.535 13.6798 125.456 13.6798C124.172 13.6798 123.11 14.1071 122.265 14.9661C121.421 15.8251 120.845 17.0345 120.542 18.5986L120.009 21.2481C119.941 21.5387 119.898 21.8037 119.881 22.0516C119.864 22.2994 119.855 22.5217 119.855 22.7268C119.855 23.8806 120.137 24.7695 120.704 25.3892C121.271 26.0088 122.095 26.3208 123.174 26.3208Z" fill="#222A59"/>
<path d="M133.227 28.855L135.884 15.6071H138.951L138.367 18.5516H138.495C138.985 17.5046 139.569 16.7011 140.256 16.1413C140.939 15.5815 141.787 15.3037 142.803 15.3037C143.865 15.3037 144.671 15.6071 145.221 16.2182C145.771 16.8251 146.044 17.6883 146.044 18.808C146.044 19.0943 146.023 19.3892 145.98 19.6841C145.938 19.9789 145.882 20.2994 145.814 20.637L144.675 26.3464H146.142L145.635 28.8593H143.506C142.901 28.8593 142.419 28.7011 142.065 28.3892C141.711 28.0772 141.531 27.6328 141.531 27.0558C141.531 26.8208 141.557 26.5815 141.608 26.3464L142.696 20.8892C142.798 20.4148 142.849 19.949 142.849 19.4917C142.849 19.0003 142.73 18.6157 142.495 18.3379C142.261 18.0601 141.864 17.9191 141.305 17.9191C140.866 17.9191 140.461 18.0259 140.09 18.2353C139.719 18.449 139.382 18.7311 139.075 19.0858C138.738 19.4747 138.443 19.9063 138.2 20.3806C137.957 20.855 137.782 21.355 137.68 21.8764L136.285 28.855H133.223H133.227Z" fill="#222A59"/>
<path d="M153.716 29.1623C151.925 29.1623 150.581 28.6623 149.677 27.6666C148.772 26.6709 148.32 25.282 148.32 23.5042C148.32 22.4401 148.491 21.4102 148.828 20.423C149.165 19.4315 149.643 18.5598 150.257 17.7948C150.871 17.0298 151.617 16.4273 152.488 15.9786C153.358 15.5298 154.334 15.3076 155.414 15.3076C155.938 15.3076 156.467 15.3717 157.009 15.4957C157.55 15.6239 158.037 15.8247 158.476 16.1025C158.915 16.3803 159.278 16.7563 159.564 17.2264C159.849 17.6965 159.994 18.2734 159.994 18.9486C159.994 20.3333 159.316 21.4102 157.956 22.188C156.595 22.9657 154.424 23.3845 151.434 23.4529C151.383 23.7905 151.357 24.0384 151.357 24.188C151.357 24.9145 151.562 25.4999 151.967 25.9401C152.372 26.3803 153.029 26.5982 153.942 26.5982C154.599 26.5982 155.2 26.4529 155.742 26.1666C156.284 25.8803 156.838 25.3803 157.414 24.6709L159.312 26.2521C158.485 27.3247 157.619 28.0768 156.714 28.5127C155.81 28.9444 154.812 29.1623 153.712 29.1623H153.716ZM155.209 17.6922C154.364 17.6922 153.648 17.97 153.055 18.5256C152.462 19.0811 152.074 19.8375 151.89 20.7948L151.762 21.423C152.842 21.3717 153.724 21.2862 154.411 21.158C155.094 21.0298 155.627 20.876 156.006 20.6922C156.386 20.5085 156.642 20.2905 156.778 20.0384C156.915 19.7862 156.979 19.4999 156.979 19.1794C156.979 18.876 156.923 18.6281 156.813 18.4358C156.702 18.2435 156.565 18.0939 156.395 17.9828C156.224 17.876 156.036 17.7991 155.823 17.7563C155.61 17.7136 155.405 17.6922 155.2 17.6922H155.209Z" fill="#222A59"/>
</g>
<defs>
<clipPath id="clip0_17306_176411">
<rect width="160" height="40" fill="white"/>
</clipPath>
</defs>
</svg>
